<svg id="visual" viewBox="0 0 960 540" width="960" height="540" xmlns="http://www.w3.org/2000/svg" xmlns:xlink="http://www.w3.org/1999/xlink" version="1.1"><g transform="translate(1022.955854023376 -18.77791686308592)"><path d="M172.2 -247.4C213.9 -241.1 232 -177.7 235.7 -121.7C239.4 -65.7 228.6 -17.2 211.7 23.3C194.8 63.9 171.8 96.4 154.1 154.4C136.3 212.3 123.8 295.7 89.2 307.6C54.6 319.5 -2.2 260 -63.7 234.1C-125.2 208.1 -191.4 215.7 -242.8 191.1C-294.2 166.5 -330.7 109.6 -349.2 44.4C-367.6 -20.9 -368 -94.6 -341.9 -157.9C-315.7 -221.2 -263 -274.2 -201.6 -271.5C-140.2 -268.8 -70.1 -210.3 -2.4 -206.6C65.2 -202.8 130.5 -253.7 172.2 -247.4" fill="#0000FF"></path></g></svg>